<?xml version="1.0" encoding="UTF-8"?>
<!-- Created with Inkscape (http://www.inkscape.org/) -->
<svg role='img' width="251.04" height="332.52" version="1.0" viewBox="0 0 251.04 332.52" xmlns="http://www.w3.org/2000/svg" xmlns:cc="http://creativecommons.org/ns#" xmlns:dc="http://purl.org/dc/elements/1.1/" xmlns:osb="http://www.openswatchbook.org/uri/2009/osb" xmlns:rdf="http://www.w3.org/1999/02/22-rdf-syntax-ns#" xmlns:xlink="http://www.w3.org/1999/xlink">
	<title>LEDE logo</title>
	<defs>
		<linearGradient id="linearGradient6959">
			<stop stop-color="#2b1100" offset="0"/>
			<stop stop-color="#2b1100" stop-opacity="0" offset="1"/>
		</linearGradient>
		<filter id="filter6605">
			<feGaussianBlur stdDeviation="2.5852505"/>
		</filter>
		<filter id="filter6621">
			<feGaussianBlur stdDeviation="2.2581629"/>
		</filter>
		<linearGradient id="linearGradient8153" x1="595.38" x2="548.48" y1="599.01" y2="647.9" gradientTransform="matrix(1 0 0 .97348 -392.56 -472.54)" gradientUnits="userSpaceOnUse" xlink:href="#linearGradient6959"/>
		<linearGradient id="linearGradient8155" x1="453.74" x2="459.13" y1="602.23" y2="644.29" gradientTransform="translate(-392.56 -489.18)" gradientUnits="userSpaceOnUse" xlink:href="#linearGradient6959"/>
		<filter id="filter9833">
			<feGaussianBlur stdDeviation="1.3046022"/>
		</filter>
		<filter id="filter9871">
			<feGaussianBlur stdDeviation="3.9603385"/>
		</filter>
		<filter id="filter9937" x="-.023631" y="-.1886" width="1.0473" height="1.3772">
			<feGaussianBlur stdDeviation="2.1171557"/>
		</filter>
	</defs>
	<metadata>
		<rdf:RDF>
			<cc:Work>
				<dc:format>image/svg+xml</dc:format>
				<dc:type rdf:resource="http://purl.org/dc/dcmitype/StillImage"/>
				<cc:license rdf:resource="http://creativecommons.org/publicdomain/zero/1.0/"/>
				<dc:publisher>
					<cc:Agent rdf:about="http://openclipart.org/">
						<dc:title>Openclipart</dc:title>
					</cc:Agent>
				</dc:publisher>
				<dc:title>LEDE logo</dc:title>
			</cc:Work>
			<cc:License rdf:about="http://creativecommons.org/publicdomain/zero/1.0/">
				<cc:permits rdf:resource="http://creativecommons.org/ns#Reproduction"/>
				<cc:permits rdf:resource="http://creativecommons.org/ns#Distribution"/>
				<cc:permits rdf:resource="http://creativecommons.org/ns#DerivativeWorks"/>
			</cc:License>
		</rdf:RDF>
	</metadata>
	<g fill="none" stroke="#000" stroke-width="1px">
		<path d="m97.799 330.08.50832-178.93 150.46-23.891-7.6248 161.14z"/>
		<path d="m97.799 151.15v179.44l-93.023-62.015.50832-150.97z"/>
		<path d="m248.77 126.75-97.089-19.824-146.9 10.675 92.514 33.549z"/>
	</g>
	<path d="m14.1 117.9 75.122-6.1104-19.41 26.059z" fill="#8f5902"/>
	<path d="m82.021 268.62c-2.9039-.46093-6.5683-1.6133-15.142-5.0702-9.6796-3.9179-13.39-4.8398-23.807-7.1444-6.7066-1.1523-16.112-3.5722-17.949-4.3097-1.6617-.66836-3.3878-2.0512-3.9156-3.1804-.24614-.50702-.37566-1.4058-.37566-2.5582 0-1.5672.16704-2.2586 1.374-5.8308 2.1931-6.4991 2.2991-9.1495.59391-14.911-1.8884-6.3839-1.4466-10.993 1.2742-13.321 1.5372-1.3137 2.6573-1.5441 7.7897-1.5441 4.9873 0 6.672-.25351 8.6033-1.3136 2.224-1.2215 3.4754-3.0652 4.9504-7.3058.94491-2.7425 1.5672-3.8257 2.1664-3.8257.48398 0 .89881 1.1984.89881 2.6504 0 1.2906-1.4519 6.7296-2.1664 8.1354-.76053 1.5211-1.7976 2.6964-2.9938 3.3878-2.2309 1.3136-6.5291 1.6594-11.244.94491-3.0122-.48399-4.7407-.36875-5.893.32265-1.7054 1.0371-1.9843 3.3648-.74671 6.2456 2.3968 5.5542 2.8555 6.7526 3.3625 8.6194.60151 2.2355.69831 4.1945.32035 6.5222-.37566 2.3046-1.0371 3.7566-2.9938 6.4991-1.0094 1.4289-1.9336 2.95-2.0558 3.4109-.3457 1.2445.16363 2.1894 1.5372 2.9039 1.1661.57616 17.797 4.8859 29.546 7.5362 3.6183.92186 10.21 2.5351 14.635 3.6874 4.448 1.1523 9.0573 2.0742 10.256 2.3046 3.7105.46094 7.1444 0 9.5182-1.3828 3.2957-2.0742 5.6003-6.8448 5.8769-12.399.18438-3.6644-.62226-6.96-2.7656-11.224-1.6363-3.2726-2.4429-4.5402-10.21-16.271-13.713-20.65-19.659-27.541-24.729-28.601-1.6363-.32265-2.7195-.13828-4.9089.85273-2.0972.94491-2.8117.99099-3.3187.23046-.48397-.73748-.87577-4.8628-.73748-7.8589.16132-3.48.82967-5.5542 3.3648-10.486 5.0242-9.7256 7.0753-14.381 10.509-23.738 3.5261-9.5874 4.955-12.238 10.509-19.474 3.0421-3.941 6.7296-9.1495 9.3338-13.16.99101-1.498 2.9039-4.2867 4.2636-6.1995 3.8718-5.439 4.0562-5.946 3.6874-10.578-.55311-6.9831-1.475-30.398-1.475-38.05-.023-7.2827.023-8.3889.48398-11.339.94491-6.029 2.4199-10.553 4.7246-14.471.87577-1.5303 1.8668-2.7402 3.7335-4.6254 3.7335-3.7658 6.9601-5.5727 12.422-7.0016 4.448-1.1643 5.5773-1.28 12.238-1.274 6.8679.006 9.0573.27771 14.174 1.7476 11.984 3.4432 20.581 11.745 23.461 22.676 1.0601 4.0331 1.6363 8.8268 2.466 20.396.87577 12.376 1.4058 16.732 2.5812 21.618.78358 3.3187 1.7285 5.5081 5.0472 11.754 6.6835 12.537 9.4491 16.916 16.294 25.72 10.786 13.874 15.994 24.89 19.083 40.331 2.6504 13.275 2.973 18.368 1.4519 22.954-.92186 2.7656-1.8207 4.1484-4.9781 7.6284-6.6374 7.3519-14.035 11.961-19.106 11.961-4.6093 0-8.8268-3.1343-11.846-8.8268-1.4058-3.1343-1.2215-5.6464-5.2546-4.7476-1.959.53007-3.5722 2.9039-4.0562 5.9691-.36875 2.1894-.29961 10.578.0922 12.676.16133.94492.71445 3.7566 1.1754 6.2226.82967 4.2636.87577 4.7246.87577 9.1034 0 4.0331-.0922 5.2546-.76054 9.6796-.62225 4.1484-.73748 5.5773-.66835 7.8358.0922 2.6273.13829 2.8808.92187 4.5171.94491 2.0742 3.0191 4.3788 4.8167 5.5312 3.964 2.5351 9.4952 2.7656 14.151.46094 1.3136-.69141 3.2265-2.0742 6.453-4.6093 5.2316-4.2406 9.1264-6.937 12.076-8.435 1.1293-.55312 3.8488-1.5902 6.0382-2.3047 9.0804-2.9269 13.229-4.6784 15.533-6.5913 2.7426-2.2355 4.0562-4.6554 3.5722-6.4761-.62226-2.2586-3.2265-3.8718-8.5503-5.2546-4.0101-1.0601-4.9781-1.5441-6.6144-3.3418-1.4519-1.5902-2.5812-3.8718-3.4109-6.914-.80664-2.973-.92187-7.7897-.23048-9.6796.48399-1.3367.96796-1.959 1.5211-1.959.64531 0 .96796 1.1293 1.1523 4.1484.23046 3.3648.76053 5.1394 2.3046 7.398 2.1894 3.2496 4.5171 5.3468 9.7948 8.8499 5.5081 3.6414 7.0292 5.3929 7.0292 8.1815 0 2.6504-1.1754 3.941-7.1675 7.9741-4.9089 3.3187-6.7526 4.3788-10.901 6.1765-8.1815 3.5722-13.989 7.5362-20.235 13.759-5.3468 5.3007-7.6745 6.914-12.445 7.6054-2.1433.23046-6.8218.23046-9.5643-.23046-5.8077-.6914-8.9651-2.7656-11.615-7.6054-1.6824-2.996-2.466-3.6874-4.4941-3.9179-.87577 0-10.555-.23046-21.525-.23046-18.022 0-20.189.23046-22.516.46093-6.3148 1.1523-9.426 2.5351-15.049 7.1444-3.1804 2.7656-4.6324 3.6875-6.1765 4.3789-1.2676.46094-4.1023.6914-5.462.46094zm20.788-14.865c.50703-.43788 1.2676-1.4519 1.7054-2.2586.6914-1.2906.78359-1.6824.85272-3.6644.16134-3.6413-.62224-5.6925-3.2035-8.412-1.7746-1.8668-2.0281-2.6734-1.014-3.1343.94491-.41483 2.1433.1153 4.2867 1.9129 4.0562 3.4339 6.453 4.0101 15.303 3.8257 9.5182-.23045 14.704-1.2215 19.935-3.8488 3.3878-1.7054 5.6234-3.6414 8.4581-7.398 2.005-2.6273 2.9039-3.5261 4.0332-3.987 1.8668-.78358 2.8578.7375 2.8117 4.3558-.023 1.6824-.20742 2.7425-.96796 5.5542-2.0742 7.4901-2.7195 11.708-2.1433 13.851.34571 1.2445 1.4289 2.1894 2.4199 2.0972.69139-.0691.71444-.11517.8988-1.4519.0922-.76053.48399-3.3418.87577-5.7616.36875-2.3968.82968-5.5081 1.0371-6.914.48397-3.6414.85272-14.934.87577-27.195.023-10.578.023-10.601.57616-12.215.43788-1.2445.82968-1.8668 1.7285-2.7656 1.4058-1.3828 2.7195-1.8898 5.6925-2.0972l1.982-.16133.27656-1.4058c.66836-3.2035 2.5812-5.0241 6.3609-6.0382 1.2215-.32265 2.4429-.43788 5.0702-.43788 3.8027 0 4.8628.23046 8.2968 1.8898 1.5441.73749 2.8808.99101 2.8808.55312 0-.3457-1.8668-2.0972-3.3648-3.1574-.78358-.57616-2.1433-1.3136-2.9961-1.6594-1.1754-.48397-1.6132-.78358-1.6594-1.1293-.0461-.27656.29961-1.8207.76054-3.457 1.3367-4.8398 1.7746-7.905 1.7976-12.514.0462-7.5823-1.2906-12.606-5.6925-21.111-4.0792-7.8819-8.389-13.667-11.8-15.833-.99099-.59921-2.1664-1.014-2.1664-.76053 0 .0922.82968 1.3136 1.8207 2.7425 4.7015 6.6605 9.5874 15.165 11.662 20.35 1.6824 4.1484 2.95 9.7717 3.3418 14.888.66835 8.389-1.6133 15.556-5.5312 17.308-.78358.36874-1.6594.50702-3.5722.55311-3.0422.11518-3.457-.0461-4.2636-1.6594l-.57617-1.1523-.13828-9.2186c-.25351-15.695-.991-18.368-9.2186-33.233-2.5351-4.5632-3.0421-5.7616-4.1253-9.91-2.2125-8.5272-4.3558-13.528-7.7206-18.045-5.1394-6.8679-5.8077-9.7256-3.7566-16.063 1.3136-4.1253 1.2906-6.2456-.0922-7.6514-1.0141-1.0371-1.7976-1.4058-6.43-2.8808-7.0292-2.2355-10.279-4.2406-11.178-6.8909-.89882-2.6043-.25351-6.8448 1.3598-8.9421 1.1523-1.5211 2.6273-2.1664 4.8859-2.1664 1.498.023 2.0972.13828 3.1343.59922 1.5902.76053 2.8578 1.8437 3.5031 3.0652.6914 1.3136.66835 4.425-.046 6.7066-1.1754 3.7105-1.1293 3.3187-.29961 4.0562 1.498 1.3367 3.8718 1.4519 4.9089.20743.89881-1.0602 1.1754-2.1433 1.2906-5.1855.13829-3.3187-.20741-5.5312-1.5672-9.7026-1.8668-5.7155-3.7335-7.3749-9.38-8.2968-4.2175-.6914-6.5222-.13828-8.6425 2.0511-3.3187 3.457-4.978 8.9651-4.3097 14.496.36875 3.0652.29961 3.2035-1.4289 2.6504-1.5441-.48399-4.932-.87577-6.8909-.80664-2.0972.0922-2.2816-.0922-2.2816-2.4429-.023-9.5643-2.9039-14.773-8.1815-14.727-3.6644 0-6.6374 2.7886-7.7436 7.2136-.43789 1.7285-.3457 6.6835.13827 9.5643.99101 5.6694 3.1343 8.5042 4.8167 6.2917.6914-.94491 1.2906-2.1433 1.2906-2.5351 0-.16133-.53007-.53006-1.1523-.82967-.6914-.32265-1.3136-.82969-1.5902-1.2906-1.3137-2.0972-1.959-5.8538-1.4058-7.8589.71445-2.5351 4.1945-4.1023 6.5913-2.973 2.0281.96795 4.1945 5.439 3.964 8.2507-.18438 2.2355-.59921 2.9269-2.6273 4.425-1.014.73748-2.6504 2.0742-3.6644 2.973-1.014.89882-2.2586 1.9359-2.7656 2.3047-2.5812 1.8668-4.0332 4.0562-4.0332 6.1304 0 1.3598.55311 2.0972 2.2816 2.95 1.3598.69139 2.5812 1.8898 3.8718 3.7796 1.7285 2.489 3.7796 3.2726 8.4811 3.2496 5.7386-.023 10.878-1.2445 20.511-4.8398 5.2316-1.959 6.6835-2.5812 6.9831-3.0421.85272-1.2445 1.8437-2.1203 2.4429-2.1203.80663 0 1.5211.76054 1.5211 1.5902 0 1.4058-2.1664 2.5582-9.6796 5.1164-2.2125.76053-5.6464 2.1433-7.6054 3.0652-3.964 1.8898-5.0702 2.2816-7.6745 2.7886-2.1433.41484-7.0984.46094-9.8178.0922-2.2125-.2996-3.5492-.13828-3.4339.43788.11517.59921 5.2316 4.5863 6.4069 5.0242 1.6594.57616 4.932.69139 7.0523.20741 3.2035-.69139 13.321-5.0472 18.345-7.8589 1.6824-.94491 2.6273-1.3367 3.2265-1.3367 1.014-.023 1.7976.62225 1.7976 1.4289 0 .87577-1.7054 2.3738-3.5722 3.1574-3.2957 1.3367-3.987 1.7054-7.2597 3.7796-4.471 2.8578-6.43 4.2867-9.3799 6.8679-3.1574 2.7426-4.0562 3.1113-7.5593 3.1574-2.7886.023-3.6414-.25351-5.462-1.8207-1.4289-1.2215-4.8398-5.462-5.8077-7.2366-1.0141-1.8437-3.2726-4.4019-3.8718-4.4019-.39179 0-.43789.0922-1.1062 2.9961-.46094 2.0742-2.1664 5.9921-4.932 11.408-3.3187 6.5222-3.48 7.0983-3.48 13.943 0 5.7156.13828 5.2316-2.6504 9.1034-3.4109 4.7937-8.7116 17.308-9.9792 23.623-.96794 4.7246-1.6363 12.768-1.4519 17.285.13828 3.5953-.0461 4.6554-.89882 5.1855-.87577.55312-1.9129-.023-4.0562-2.1433-3.3648-3.3878-4.448-6.1995-4.4249-11.569.023-3.4109.32266-6.0382.991-8.5733.57616-2.1664.59921-2.7886.0691-2.6734-.55311.0922-1.7976 2.6504-2.3968 4.932-.36875 1.3597-.50704 2.7656-.59921 5.6234-.0922 3.5031-.0692 4.0101.48397 6.453.6914 3.0652 2.005 5.923 3.8257 8.3198 2.7886 3.6874 16.916 16.225 26.319 23.392 2.2586 1.7054 4.7706 3.8488 5.6003 4.7476 4.9781 5.3929 4.0101 10.325-2.7886 14.128-1.0601.59922-1.9359 1.1293-1.9359 1.1754 0 .0461.87577 1.2676 1.9359 2.6734 3.8949 5.2546 6.1534 9.1034 6.937 11.8.53007 1.7746.50702 4.3328-.0692 5.969-.23046.73749-.36874 1.3367-.27655 1.3367.0922 0 .57616-.46093 1.0832-.80663zm3.987-171.6c-.71444-1.3598.62226-2.5351 2.9039-2.5351.80664 0 1.5211.0922 1.5902.23046.16132.27656-.62226.6914-1.3137.6914-.41483 0-.6453.23047-.991.991-.36875.80663-.57616.99101-1.1984 1.0371-.55312.0461-.78358-.0461-.99101-.41484zm13.667-.991c-1.3367-.48398-2.3738-1.1523-2.1203-1.4058.0692-.0692.85272-.18437 1.7285-.27656 2.0742-.18437 2.8578.1153 2.8578 1.0371 0 .46092-.16132.78357-.43788.94491-.25351.11517-.48399.23046-.53007.20741-.023 0-.71445-.23046-1.498-.50702zm-47.983 64.6c2.2125-2.2816 2.8347-3.4339 2.6965-5.0702-.0692-1.1293-.50704-1.5211-1.4289-1.2906-.66835.16132-1.0371.85273-1.6363 2.95-.25351 1.0141-.66835 1.6824-1.6133 2.7426-1.2676 1.4289-1.498 1.959-.99101 2.466.53009.53007.96796.27656 2.973-1.7976zm88.637-38.903c.48399-.2996 1.4519-2.6734 1.4519-3.5722 0-.71444-.13827-1.0371-.71443-1.5672-.3918-.36875-.80664-.66835-.92187-.66835-.1153 0-1.014-.36874-2.005-.85273-1.1984-.57616-2.2586-1.2906-3.2957-2.3047-.82968-.78357-1.6363-1.4519-1.7746-1.4519-.13828 0-.32265.27656-.41484.59921-.25351 1.0602.1153 2.6965 1.0832 4.6324.82968 1.7285 1.1293 2.0742 3.0422 3.6414 2.0511 1.6824 2.8117 2.005 3.5492 1.5441zm-55.45-30.859c.27656-.71445.20743-1.2676-.50702-3.5953-.29961-1.014-.73749-1.8668-1.1984-2.3738-.66834-.71443-.78358-.76053-1.3136-.48397-.76054.41484-.69141 1.3367.20741 2.3508.66836.76053 1.2445 2.2125 1.5211 3.8718.18437 1.0602.92186 1.1984 1.2906.23047zm32.473-.6453c.50703-.59922.13828-3.457-.55312-4.5171-.71444-1.0832-2.3738-2.0742-3.6874-2.2125-.87577-.11517-1.0371-.0461-1.2906.3918-.32265.59921-.16133.78358.96795 1.1293 1.4289.46093 2.7426 2.4199 3.0882 4.5863.13828.80662.25352.96796.66835.96796.29961 0 .64531-.16134.80663-.3457zm1.5441-31.044c1.6594-1.1454 1.7746-1.1961 3.3648-1.2376 2.0281-.053 2.466-.22355 2.466-.938 0-1.1131-3.8257-4.5056-5.439-4.8052-1.6133-.30422-2.1894.57155-2.5121 3.8511-.13827 1.2261-.2996 1.7377-.82967 2.3945-.71444.90573-.82968 1.4381-.36875 1.8944.46094.47245 1.4519.12445 3.3187-1.1593z" filter="url(#filter9871)" stroke="#000"/>
	<path d="m122.62 24.697c-6.6773 0-7.7971.083-12.235 1.2442-5.4745 1.4516-8.668 3.2764-12.401 7.0505-1.9078 1.8663-2.8617 3.069-3.7741 4.6036-2.2811 3.94-3.7741 8.4192-4.6865 14.474-.49768 2.9446-.53915 4.023-.49768 11.322 0 7.6727.91242 31.064 1.4516 38.073.37327 4.6451.20737 5.1427-3.6912 10.576-1.3686 1.9078-3.2764 4.6865-4.2303 6.1796-2.6128 4.023-6.304 9.2072-9.3316 13.189-5.599 7.2164-7.0091 9.8708-10.534 19.451-3.4008 9.3731-5.4745 14.018-10.493 23.764-2.5714 4.8939-3.235 6.9676-3.3594 10.451-.1659 2.9861.24884 7.1335.70505 7.88.37326.49769.82948.6221 1.7419.37327-.12443.12442-.20738.20736-.29031.24883-1.4516.9539-3.1105 2.9861-4.1474 5.5575-.0415.0415-.0415.12441-.083.16589-.37327.58064-.788 1.576-1.2857 3.1105-1.4931 4.2303-2.7373 6.0966-4.9769 7.2994-1.9078 1.0368-3.6082 1.2857-8.5851 1.2857-5.1428 0-6.2625.24885-7.7971 1.576-2.7373 2.3225-3.152 6.9261-1.2857 13.313 1.7004 5.7648 1.6175 8.4192-.58063 14.889-1.2027 3.5668-1.3686 4.3133-1.3686 5.8478 0 1.1613.12443 2.0322.37326 2.5714.53917 1.1198 2.2396 2.4884 3.8985 3.1935 1.8663.70505 11.239 3.0276 17.958 4.3548 10.41 2.1152 14.143 3.235 23.806 7.092 8.5851 3.4008 12.235 4.6451 15.138 5.1013 1.3686.20736 4.1888-.0415 5.4745-.53917 1.5345-.53917 2.9861-1.5345 6.1796-4.2303 5.6404-4.728 8.7095-6.2211 15.014-7.2164 2.364-.37327 4.5206-.41474 22.562-.41474 10.949 0 20.612.083 21.483.20737 2.0322.24884 2.8202.91242 4.5206 3.8985 2.6128 4.6865 5.8063 6.7602 11.613 7.6312 2.7373.41473 7.4238.45621 9.5804.12442 4.728-.788 7.092-2.1981 12.442-7.5482 6.2211-6.2625 12.027-10.203 20.198-13.769 4.1474-1.8248 6.0137-2.8617 10.908-6.1796 6.0137-4.0644 7.175-5.3501 7.175-8.0044 0-2.7787-1.4931-4.5206-7.0091-8.1703-5.2672-3.4838-7.6312-5.599-9.8293-8.8339-1.5345-2.2811-2.0737-4.023-2.281-7.4238-.083-1.576-.24884-2.6543-.45622-3.3179-.20736-2.364-1.1613-5.0598-2.8617-5.9307-2.364-1.2442-3.1935-.87095-3.9815-.37327 2.6543-2.9861 3.5253-4.3962 4.3962-6.9676 1.5345-4.5621 1.2027-9.6634-1.4516-22.935-3.0691-15.428-8.2948-26.46-19.078-40.313-6.8432-8.8339-9.6219-13.23-16.299-25.755-3.3179-6.2625-4.2718-8.4192-5.0598-11.779-1.1613-4.8524-1.7004-9.2072-2.5714-21.608-.82948-11.571-1.4101-16.341-2.4884-20.364-2.8617-10.949-11.447-19.244-23.433-22.686-5.1013-1.4516-7.2994-1.7419-14.184-1.7419z" fill="#fff"/>
	<path d="m20.281 117.85 81.331 26.941 133.69-19.316-133.69 19.062z" fill="none" filter="url(#filter9937)" stroke="#000" stroke-width="3"/>
	<g>
		<path d="m149.39 108.45-129.62 9.6581-14.995-1.2708 146.87-10.061z" fill="#8f5902" stroke="#6d4301" stroke-width="1px"/>
		<path d="m93.479 102.35-4.829 14.233 64.303-3.8124-5.0832-11.437z" fill="#fff"/>
		<path d="m240.19 126.17-77.099-16.175-.71887 28.755z" fill="#8f5902"/>
	</g>
	<g transform="matrix(.41474 0 0 .41474 -82.676 -97.402)" fill="#f8bf11">
		<path transform="matrix(.55569 0 0 .55569 249.67 292.48)" d="m552 300.4c0 25.1-29.9 30.4-44.4 39.4-13.5 12.5-91.2 47.8-111.8 47.8-33.1-7-73.4-56.4-78.6-89.2 0-19.1 24.3-34.4 37.9-46.9 13.5-12.5 29.1-24.3 55.7-19.3 20.6 0 52.8 9.8 66.3 22.3 27 9 74.9 14.8 74.9 45.9z"/>
		<path transform="matrix(.55569 0 0 .55569 249.67 292.48)" d="m7.597 971.1c30.75 14 102.4 31.9 127.6 34.9 16.9 7 128.5 33 154.2 33 38.1-27 44.4-67.9 33.7-109.3-47.5-76.7-84.2-177.2-173-211.8-8.9 4.4-16.2 16.3-19.4 18.3-6.4 4.1-13.5 13-18 24.1-4.7 11.6-9 25.8-14.24 46.5-10.26 20.6-52.15 2-80.84 17-10.46 31.7 7.39 109.9-10.02 147.3z"/>
		<path transform="matrix(.55569 0 0 .55569 249.67 292.48)" d="m834.2 853.6c19.2 15.7 49.3 27.4 62.9 53.5-25.9 30.9-48.2 41.8-81 57.4-45 21.4-73.2 41.5-93.8 55.5-20.6 18-68.4 29-90.1 26-13.7-9-29.1-118.3-24.1-154 0-19-23.3-95.1 14-141.5 36.1-6.9 67.1 26.1 90 48.6 18.9-12.7 48.8-32.2 71.4-37.1 7.4-1.7 7.7-9.4 23.2-1.3 7.4 3.9 11.7 16.1 12.5 26.5 1.3 16.8 3 52.4 15 66.4z"/>
	</g>
	<path d="m4.2685 268.06 147.41-24.908 89.973 44.732-143.85 42.191z" fill="none" stroke="#000" stroke-width="1px"/>
	<g>
		<path d="m234.28 125.73-84.127-17.283 1.7791-1.7791 97.598 19.825z" fill="#8f5902" stroke="#6d4301" stroke-linejoin="round" stroke-width="1px"/>
		<path d="m13.74 118.35 75.122-6.1104-19.41 26.059z" fill="url(#linearGradient8155)" opacity=".79448"/>
		<path d="m239.85 126.34-77.099-15.746-.71887 27.992z" fill="url(#linearGradient8153)"/>
	</g>
	<path d="m82.059 268.89c-2.9039-.46092-6.5683-1.6133-15.142-5.0702-9.6796-3.9179-13.39-4.8398-23.807-7.1444-6.7066-1.1523-16.112-3.5722-17.949-4.3097-1.6617-.66836-3.3878-2.0512-3.9156-3.1804-.24614-.50702-.37566-1.4058-.37566-2.5582 0-1.5672.16704-2.2586 1.374-5.8308 2.1931-6.4991 2.2991-9.1495.59391-14.911-1.8884-6.3839-1.4466-10.993 1.2742-13.321 1.5372-1.3137 2.6573-1.5441 7.7897-1.5441 4.9873 0 6.672-.25351 8.6033-1.3136 2.224-1.2215 3.4754-3.0652 4.9504-7.3058.94491-2.7425 1.5672-3.8257 2.1664-3.8257.48398 0 .89881 1.1984.89881 2.6504 0 1.2906-1.4519 6.7296-2.1664 8.1354-.76053 1.5211-1.7976 2.6964-2.9938 3.3878-2.2309 1.3136-6.5291 1.6594-11.244.94491-3.0122-.48399-4.7407-.36875-5.893.32265-1.7054 1.0371-1.9843 3.3648-.74671 6.2456 2.3968 5.5542 2.8555 6.7526 3.3625 8.6194.60151 2.2355.69831 4.1945.32035 6.5222-.37566 2.3046-1.0371 3.7566-2.9938 6.4991-1.0094 1.4289-1.9336 2.95-2.0558 3.4109-.3457 1.2445.16363 2.1894 1.5372 2.9039 1.1661.57616 17.797 4.8859 29.546 7.5362 3.6183.92186 10.21 2.5351 14.635 3.6874 4.448 1.1523 9.0573 2.0742 10.256 2.3046 3.7105.46094 7.1444 0 9.5182-1.3828 3.2957-2.0742 5.6003-6.8448 5.8769-12.399.18438-3.6644-.62226-6.96-2.7656-11.224-1.6363-3.2726-2.4429-4.5402-10.21-16.271-13.713-20.65-19.659-27.541-24.729-28.601-1.6363-.32265-2.7195-.13828-4.9089.85273-2.0972.94491-2.8117.99099-3.3187.23046-.48397-.73748-.87577-4.8628-.73748-7.8589.16132-3.48.82967-5.5542 3.3648-10.486 5.0242-9.7256 7.0753-14.381 10.509-23.738 3.5261-9.5874 4.955-12.238 10.509-19.474 3.0421-3.941 6.7296-9.1495 9.3338-13.16.99101-1.498 2.9039-4.2866 4.2636-6.1995 3.8718-5.439 4.0562-5.946 3.6874-10.578-.55311-6.9831-1.475-30.398-1.475-38.05-.023-7.2827.023-8.3889.48398-11.339.94491-6.029 2.4199-10.553 4.7246-14.471.87577-1.5303 1.8668-2.7402 3.7335-4.6254 3.7335-3.7658 6.9601-5.5727 12.422-7.0016 4.448-1.1643 5.5773-1.28 12.238-1.274 6.8679.006 9.0573.27771 14.174 1.7476 11.984 3.4432 20.581 11.745 23.461 22.676 1.0601 4.0331 1.6363 8.8268 2.466 20.396.87577 12.376 1.4058 16.732 2.5812 21.618.78358 3.3187 1.7285 5.5081 5.0472 11.754 6.6835 12.537 9.4491 16.916 16.294 25.72 10.786 13.874 15.994 24.89 19.083 40.331 2.6504 13.275 2.973 18.368 1.4519 22.954-.92186 2.7656-1.8207 4.1484-4.9781 7.6284-6.6374 7.3519-14.035 11.961-19.106 11.961-4.6093 0-8.8268-3.1343-11.846-8.8268-1.4058-3.1343-1.2215-5.6464-5.2546-4.7476-1.959.53007-3.5722 2.9039-4.0562 5.9691-.36875 2.1894-.29961 10.578.0922 12.676.16133.94492.71445 3.7566 1.1754 6.2226.82967 4.2636.87577 4.7246.87577 9.1034 0 4.0331-.0922 5.2546-.76054 9.6796-.62225 4.1484-.73748 5.5773-.66835 7.8358.0922 2.6273.13829 2.8808.92187 4.5171.94491 2.0742 3.0191 4.3788 4.8167 5.5312 3.964 2.5351 9.4952 2.7656 14.151.46095 1.3136-.69142 3.2265-2.0742 6.453-4.6093 5.2316-4.2406 9.1264-6.937 12.076-8.435 1.1293-.55312 3.8488-1.5902 6.0382-2.3047 9.0804-2.9269 13.229-4.6784 15.533-6.5913 2.7426-2.2355 4.0562-4.6554 3.5722-6.4761-.62226-2.2586-3.2265-3.8718-8.5503-5.2546-4.0101-1.0601-4.9781-1.5441-6.6144-3.3418-1.4519-1.5902-2.5812-3.8718-3.4109-6.914-.80664-2.973-.92187-7.7897-.23048-9.6796.48399-1.3367.96796-1.959 1.5211-1.959.64531 0 .96796 1.1293 1.1523 4.1484.23046 3.3648.76053 5.1394 2.3046 7.398 2.1894 3.2496 4.5171 5.3468 9.7948 8.8499 5.5081 3.6414 7.0292 5.3929 7.0292 8.1815 0 2.6504-1.1754 3.941-7.1675 7.9741-4.9089 3.3187-6.7526 4.3788-10.901 6.1765-8.1815 3.5722-13.989 7.5362-20.235 13.759-5.3468 5.3007-7.6745 6.914-12.445 7.6054-2.1433.23046-6.8218.23046-9.5643-.23046-5.8077-.6914-8.9651-2.7656-11.615-7.6054-1.6824-2.996-2.466-3.6874-4.4941-3.9179-.87577 0-10.555-.23046-21.525-.23046-18.022 0-20.189.23046-22.516.46093-6.3148 1.1523-9.426 2.5351-15.049 7.1444-3.1804 2.7656-4.6324 3.6874-6.1765 4.3788-1.2676.46094-4.1023.6914-5.462.46094zm20.788-14.865c.50703-.43788 1.2676-1.4519 1.7054-2.2586.6914-1.2906.78359-1.6824.85272-3.6644.16134-3.6414-.62224-5.6925-3.2035-8.412-1.7746-1.8668-2.0281-2.6734-1.014-3.1343.94491-.41483 2.1433.11529 4.2867 1.9129 4.0562 3.4339 6.453 4.0101 15.303 3.8257 9.5182-.23046 14.704-1.2215 19.935-3.8488 3.3878-1.7054 5.6234-3.6414 8.4581-7.398 2.005-2.6273 2.9039-3.5261 4.0332-3.987 1.8668-.78358 2.8578.7375 2.8117 4.3558-.023 1.6824-.20742 2.7425-.96796 5.5542-2.0742 7.4901-2.7195 11.708-2.1433 13.851.34571 1.2445 1.4289 2.1894 2.4199 2.0972.69139-.0691.71444-.11517.8988-1.4519.0922-.76053.48399-3.3418.87577-5.7616.36875-2.3968.82968-5.5081 1.0371-6.914.48397-3.6414.85272-14.934.87577-27.195.023-10.578.023-10.601.57616-12.215.43788-1.2445.82968-1.8668 1.7285-2.7656 1.4058-1.3828 2.7195-1.8898 5.6925-2.0972l1.982-.16133.27656-1.4058c.66836-3.2035 2.5812-5.0241 6.3609-6.0382 1.2215-.32265 2.4429-.43788 5.0702-.43788 3.8027 0 4.8628.23046 8.2968 1.8898 1.5441.73748 2.8808.99101 2.8808.55311 0-.3457-1.8668-2.0972-3.3648-3.1574-.78358-.57616-2.1433-1.3136-2.9961-1.6594-1.1754-.48397-1.6132-.78357-1.6594-1.1293-.0461-.27656.29961-1.8207.76054-3.457 1.3367-4.8398 1.7746-7.905 1.7976-12.514.0462-7.5823-1.2906-12.606-5.6925-21.111-4.0792-7.8819-8.389-13.667-11.8-15.833-.99099-.59921-2.1664-1.014-2.1664-.76053 0 .0922.82968 1.3136 1.8207 2.7425 4.7015 6.6605 9.5874 15.165 11.662 20.35 1.6824 4.1484 2.95 9.7717 3.3418 14.888.66835 8.389-1.6133 15.556-5.5312 17.308-.78358.36874-1.6594.50702-3.5722.55311-3.0422.11518-3.457-.0461-4.2636-1.6594l-.57617-1.1523-.13828-9.2186c-.25351-15.695-.991-18.368-9.2186-33.233-2.5351-4.5632-3.0421-5.7616-4.1253-9.91-2.2125-8.5272-4.3558-13.528-7.7206-18.045-5.1394-6.8679-5.8077-9.7256-3.7566-16.063 1.3136-4.1253 1.2906-6.2456-.0922-7.6514-1.0141-1.0371-1.7976-1.4058-6.43-2.8808-7.0292-2.2355-10.279-4.2406-11.178-6.8909-.89882-2.6043-.25351-6.8448 1.3598-8.9421 1.1523-1.5211 2.6273-2.1664 4.8859-2.1664 1.498.023 2.0972.13828 3.1343.59922 1.5902.76053 2.8578 1.8437 3.5031 3.0652.6914 1.3136.66835 4.425-.046 6.7066-1.1754 3.7105-1.1293 3.3187-.29961 4.0562 1.498 1.3367 3.8718 1.4519 4.9089.20743.89881-1.0602 1.1754-2.1433 1.2906-5.1855.13829-3.3187-.20741-5.5312-1.5672-9.7026-1.8668-5.7155-3.7335-7.3749-9.38-8.2968-4.2175-.6914-6.5222-.13828-8.6425 2.0511-3.3187 3.457-4.978 8.9651-4.3097 14.496.36875 3.0652.29961 3.2035-1.4289 2.6504-1.5441-.48399-4.932-.87577-6.8909-.80664-2.0972.0922-2.2816-.0922-2.2816-2.4429-.023-9.5643-2.9039-14.773-8.1815-14.727-3.6644 0-6.6374 2.7886-7.7436 7.2136-.43789 1.7285-.3457 6.6835.13827 9.5643.99101 5.6694 3.1343 8.5042 4.8167 6.2917.6914-.94491 1.2906-2.1433 1.2906-2.5351 0-.16133-.53007-.53006-1.1523-.82967-.6914-.32265-1.3136-.82969-1.5902-1.2906-1.3137-2.0972-1.959-5.8538-1.4058-7.8589.71445-2.5351 4.1945-4.1023 6.5913-2.973 2.0281.96795 4.1945 5.439 3.964 8.2507-.18438 2.2355-.59921 2.9269-2.6273 4.425-1.014.73748-2.6504 2.0742-3.6644 2.973-1.014.89882-2.2586 1.9359-2.7656 2.3047-2.5812 1.8668-4.0332 4.0562-4.0332 6.1304 0 1.3598.55311 2.0972 2.2816 2.95 1.3598.69139 2.5812 1.8898 3.8718 3.7796 1.7285 2.489 3.7796 3.2726 8.4811 3.2496 5.7386-.023 10.878-1.2445 20.511-4.8398 5.2316-1.959 6.6835-2.5812 6.9831-3.0421.85272-1.2445 1.8437-2.1203 2.4429-2.1203.80663 0 1.5211.76054 1.5211 1.5902 0 1.4058-2.1664 2.5582-9.6796 5.1164-2.2125.76053-5.6464 2.1433-7.6054 3.0652-3.964 1.8898-5.0702 2.2816-7.6745 2.7886-2.1433.41484-7.0984.46094-9.8178.0922-2.2125-.2996-3.5492-.13828-3.4339.43788.11517.59921 5.2316 4.5863 6.4069 5.0242 1.6594.57616 4.932.69139 7.0523.20741 3.2035-.69139 13.321-5.0472 18.345-7.8589 1.6824-.94491 2.6273-1.3367 3.2265-1.3367 1.014-.023 1.7976.62225 1.7976 1.4289 0 .87577-1.7054 2.3738-3.5722 3.1574-3.2957 1.3367-3.987 1.7054-7.2597 3.7796-4.471 2.8578-6.43 4.2867-9.3799 6.8679-3.1574 2.7426-4.0562 3.1113-7.5593 3.1574-2.7886.023-3.6414-.25351-5.462-1.8207-1.4289-1.2215-4.8398-5.462-5.8077-7.2366-1.0141-1.8437-3.2726-4.4019-3.8718-4.4019-.39179 0-.43789.0922-1.1062 2.9961-.46094 2.0742-2.1664 5.9921-4.932 11.408-3.3187 6.5222-3.48 7.0983-3.48 13.943 0 5.7156.13828 5.2316-2.6504 9.1034-3.4109 4.7937-8.7116 17.308-9.9792 23.623-.96794 4.7246-1.6363 12.768-1.4519 17.285.13828 3.5953-.0461 4.6554-.89882 5.1855-.87577.55312-1.9129-.023-4.0562-2.1433-3.3648-3.3878-4.448-6.1995-4.4249-11.569.023-3.4109.32266-6.0382.991-8.5733.57616-2.1664.59921-2.7886.0691-2.6734-.55311.0922-1.7976 2.6504-2.3968 4.932-.36875 1.3597-.50704 2.7656-.59921 5.6234-.0922 3.5031-.0692 4.0101.48397 6.453.6914 3.0652 2.005 5.923 3.8257 8.3198 2.7886 3.6874 16.916 16.225 26.319 23.392 2.2586 1.7054 4.7706 3.8488 5.6003 4.7476 4.9781 5.3929 4.0101 10.325-2.7886 14.128-1.0601.59922-1.9359 1.1293-1.9359 1.1754 0 .0461.87577 1.2676 1.9359 2.6734 3.8949 5.2546 6.1534 9.1034 6.937 11.8.53007 1.7746.50702 4.3328-.0692 5.969-.23046.73749-.36874 1.3367-.27655 1.3367.0922 0 .57616-.46093 1.0832-.80663zm3.987-171.6c-.71444-1.3598.62226-2.5351 2.9039-2.5351.80664 0 1.5211.0922 1.5902.23046.16132.27656-.62226.6914-1.3137.6914-.41483 0-.6453.23047-.991.991-.36875.80663-.57616.99101-1.1984 1.0371-.55312.0461-.78358-.0461-.99101-.41484zm13.667-.991c-1.3367-.48398-2.3738-1.1523-2.1203-1.4058.0692-.0692.85272-.18437 1.7285-.27656 2.0742-.18437 2.8578.1153 2.8578 1.0371 0 .46092-.16132.78357-.43788.94491-.25351.11517-.48399.23046-.53007.20741-.023 0-.71445-.23046-1.498-.50702zm-47.983 64.6c2.2125-2.2816 2.8347-3.4339 2.6965-5.0702-.0692-1.1293-.50704-1.5211-1.4289-1.2906-.66835.16132-1.0371.85274-1.6363 2.95-.25351 1.0141-.66835 1.6824-1.6133 2.7426-1.2676 1.4289-1.498 1.959-.99101 2.466.53009.53008.96796.27657 2.973-1.7976zm88.637-38.903c.48399-.2996 1.4519-2.6734 1.4519-3.5722 0-.71444-.13827-1.0371-.71443-1.5672-.3918-.36874-.80664-.66834-.92187-.66834-.1153 0-1.014-.36874-2.005-.85273-1.1984-.57617-2.2586-1.2906-3.2957-2.3047-.82968-.78358-1.6363-1.4519-1.7746-1.4519-.13828 0-.32265.27656-.41484.59921-.25351 1.0602.1153 2.6965 1.0832 4.6324.82968 1.7285 1.1293 2.0742 3.0422 3.6414 2.0511 1.6824 2.8117 2.005 3.5492 1.5441zm-55.45-30.859c.27656-.71445.20743-1.2676-.50702-3.5953-.29961-1.014-.73749-1.8668-1.1984-2.3738-.66834-.71442-.78358-.76053-1.3136-.48397-.76054.41485-.69141 1.3367.20741 2.3508.66836.76053 1.2445 2.2125 1.5211 3.8718.18437 1.0602.92186 1.1984 1.2906.23047zm32.473-.6453c.50703-.59922.13828-3.457-.55312-4.5171-.71444-1.0832-2.3738-2.0742-3.6874-2.2125-.87577-.11516-1.0371-.0461-1.2906.3918-.32265.59922-.16133.78358.96795 1.1293 1.4289.46093 2.7426 2.4199 3.0882 4.5863.13828.80662.25352.96796.66835.96796.29961 0 .64531-.16134.80663-.34569zm1.5441-31.044c1.6594-1.1454 1.7746-1.1961 3.3648-1.2376 2.0281-.053 2.466-.22355 2.466-.938 0-1.1131-3.8257-4.5056-5.439-4.8052-1.6133-.30422-2.1894.57155-2.5121 3.8511-.13827 1.2261-.2996 1.7377-.82967 2.3945-.71444.90573-.82968 1.4381-.36875 1.8944.46094.47245 1.4519.12445 3.3187-1.1592z" stroke="#000" stroke-width=".2"/>
	<g fill="#8f5902" stroke="#6d4301">
		<path d="m174.56 307.2 2.5416-168.76 35.582-5.5915-4.0666 164.7z" stroke-width="1px"/>
		<path d="m176.59 138.44-39.649 6.6082 1.525 172.83 36.091-10.675z" stroke-width="1px"/>
		<path d="m136.43 144.54-38.632 5.5915v179.44l40.666-11.691z"/>
		<g stroke-width="1px">
			<path d="m212.68 132.34-4.5749 165.2 34.057-9.1498 7.1165-162.15z"/>
			<path d="m49.509 133.36-.50832 164.19-25.924-17.283 2.0333-155.55z"/>
			<path d="m25.618 124.71-20.841-7.6248-.6572 150.82 19.018 12.528z"/>
			<path d="m49.001 133.36 25.416 9.1498-3.0499 169.78-22.874-14.741z"/>
			<path d="m97.799 151.15-23.891-9.1498-3.5582 169.78 27.449 18.808z"/>
			<path d="m97.681 150.28 4.1846-5.2321 133.18-19.316 14.233.50833z"/>
			<path d="m101.36 144.93-81.84-26.823-13.725-.50832 92.217 33.549z"/>
		</g>
	</g>
	<g fill="none" stroke="#6d4301" stroke-width="1px">
		<path d="m212.68 132.34-10.929-1.7791z"/>
		<path d="m176.34 138.18-10.675-2.5416z"/>
		<path d="m136.43 145.05-10.929-3.8124z"/>
		<path d="m74.163 142.25 13.57-1.4941z"/>
		<path d="m49.509 133.61 14.246-1.0911z"/>
		<path d="m25.364 124.97 13.725-.50832z"/>
	</g>
	<g fill="#6d4301">
		<path d="m184.88 255.09c2.4581 2.7337-.91194 12.03 3.5029 12.23 3.9729-1.4491 3.2014-8.5334 4.3078-12.185 1.1383-4.9848-3.8285-6.6295-7.1508-2.9545-.39209 2.1942-.0607 9.8842-1.5391 5.3098-.41586-6.4227 8.2344-12.738 8.7491-7.3006 1.3444 4.2425.17062 11.503-3.8019 18.907-6.0734 1.1527-2.5271-9.6018-4.0678-14.007m2.8119 1.0108c-1.8104 3.7468 4.8457 6.0391 1.6111 3.1185-1.3705-.70468-.21632-4.5856.59602-1.5567 1.6335 1.1771.34462 6.0731-2.0264 4.1633-.92768-.99773-1.371-2.9418-.18071-5.7251m20.694-93.3c-6.2913 32.281-4.5758 58.687-5.6526 86.618-.13479 8.984-.36055 18.027.35581 26.183 3.0287.35805-2.8185 9.3149-2.1163 3.5416.38673-9.7934.10513-19.131.37196-28.929.42869-19.305.53222-38.515 1.6376-58.68.56689-8.2274 1.4972-16.761 3.1304-25.735.75144-.99466 1.5126-1.9965 2.2732-2.9976m-15.078-11.624c4.6799 32.103 3.3959 68.662 3.653 103.21-.62269 4.5421 1.5712 11.705-1.8108 15.157 2.1171-4.7555.46935 2.094-.41906-.29791 1.3424-21.015.95262-40.842.73466-60.973-.33866-18.763-.90819-37.73-4.4727-54.029.55137-1.1679 1.7431-1.8817 2.3149-3.0642m-11.466 22.385c5.9939 9.286 4.142 26.147 4.7293 40.241-.0107 10.702-.094 21.409.28182 31.669-5.3622 4.2908-.21991-8.2031-2.1481-10.005-.24259-18.123 1.3018-38.082-2.2768-53.686-.73207-2.0232-3.8758-3.5929-.58621-8.2182" opacity=".9"/>
		<path d="m150.47 192.55c1.1272-5.2968.1462-10.288 4.918-16.736 8.4311-8.3117 7.5436 3.3144 6.5581 7.9026-.5389 5.1171 2.9881 9.2728-2.5562 16.317-8.7846 7.8703-9.2005-1.7204-8.675-6.6057-.0495-2.351 1.5377-6.8884 1.2574-2.1705-.3199 4.542-1.1299 14.794 7.6474 7.1965 5.0243-7.0224-.74557-9.8616 1.7653-16.322 2.1797-5.4746-3.0138-11.689-8.1401-1.8652-1.8556 3.9036-.17431 7.6128-2.7748 12.284m3.0574 2.461c-1.032-2.6367-1.439-12.466 5.4695-13.089 3.7276.81288.5351 12.746-4.9338 12.772-.44117-3.7095 4.4987-1.0034 5.5534-5.9312 2.0719-4.4685-5.8542-7.1873-5.5097-.80375.0537 2.1651 1.0473 4.0177-.57945 7.0514m18.18-38.714c-1.3729 33.811-7.7781 70.227-15.675 107.02-.64875 2.2892-1.4597 10.651-3.9875 8.7672 2.117-6.6405 2.9735-12.687 4.4782-19.073 5.7448-27.635 10.197-54.842 11.587-80.435.1739-4.3001.22628-8.5332.23355-12.758 1.1272-1.1749 2.2384-2.3399 3.3644-3.5254m-.15036.92488c-1.5221 36.484-4.5399 73.442-7.9252 110.2-1.5029 4.2722 2.5997 7.8118-2.2552 11.999-2.219-2.4907.7201-9.4144.41805-13.594 3.209-27.275 4.4101-53.562 5.8337-80.202.35439-8.3668.58878-16.697.62574-24.922 1.0967-1.1568 2.2078-2.3219 3.3029-3.477m-27.08 12.851c3.8144 13.48 2.3221 30.514 2.2424 46.372-.9884 25.596-3.9852 52.439.22714 74.038 1.0539 2.3736 8.7728.69592 3.9873 6.8966-2.5278-3.2651-7.2318-4.6787-6.6806-10.711-3.1188-31.34 2.7163-69.011-.4972-101.26 1.2905-5.619-4.9022-8.0551-.0468-14.675l.76727-.65675" opacity=".9"/>
		<path d="m235.36 147.34c1.2695 9.8604 1.6658 20.478-1.3333 32.914-6.2496 28.545-9.9405 55.624-11.977 81.401.17824 3.6984-1.1636 9.0729 1.5184 10.55.95052.36618-3.4576 4.5983-3.3616 2.3178-1.5234-3.8241-.13927-9.9901.15106-15.187 2.6758-25.782 6.3485-52.401 12.274-80.343 2.2212-10.955 1.5151-20.301-.0816-28.837.942-.9459 1.8698-1.8715 2.8104-2.8161m-16.379 11.607c2.9386 6.3383 1.4689 16.034 1.6202 24.363-.7451 29.961-2.575 60.31-2.6748 89.137.66206 1.9177.59321 6.5996-.91278 6.4324 4.7823-5.2099-2.8287 4.6002-1.3368-.39143.24121-17.436 1.697-35.823 2.0379-53.575.44767-19.014 1.5327-38.629.37435-56.864.91741-3.6189-4.601-4.7037.73053-8.9337 0 0 .16144-.16835.16144-.16835" opacity=".9"/>
	</g>
	<g transform="matrix(1.7402 -.61042 -4.0177e-6 1.4781 -920.31 318.03)">
		<path d="m598.05 170.22c-1.49-3.54-1.86-7.61-2.04-11.44.17-5.03-.51-10.2.99-15.08 3.53-3.82 6.56 1.65 7.5 4.74 1.6 3.54.15 7.58.57 11.34-.44 3.82 1.29 8.51-1.96 11.49-1.23 2.15-6.77-.49-4.66-1.73 1.49 1.13 3.39 2.63 5.11.77-.23.62 1.28-3.08.73-4.44-.09-4.94.13-9.89.1-14.83-1.33-2.76-1.95-8.02-5.94-7.64-1.04.29-1.52.75-.62-.31-1.73 5.43-.82 11.23-1.02 16.83-.11 3.42 1.93 7.54 1.52 10.36-.13.12-.18-.05-.28-.06zm1.6-5.18c-2.45-2.66-1.89-6.7-2.17-10.07-.83-2.18 1.14-7.59 3.25-3.59 1.86 3.01 3.12 6.7 1.79 10.18-.08 1.01-2.22 5.14-1.33 2.83-.91.76 1.2-3.22 1.07-4.6.38-3.16-1.21-6.22-3-8.69-1.73-.22-.04-1.54-1.01.48.07 4.02-.38 8.33 1.48 12.03.69.45 1.17 1.31-.08 1.43zm1.36 63.44c-1.62-14.21-1.02-28.54-1.31-42.81-.24-1.81.72-4.59.42-1.12-.01 14.02-.28 28.11 1.43 42.03-.02.14-.24 2.79-.54 1.9zm-4.93 10.23c-.27-11.94-1.46-23.87-1.43-35.84-.03-3.64.03-4.56-.09-8.5-.69-7.11-.6-14.28-1.24-21.4-.38-2.1-.19-6.73.89-7.31.21 4.67.35 9.33.66 14.01.59 10.32.54 20.66 1.01 30.98.37 7.83.9 15.65 1.47 23.45-.03.84-.84 5.63-1.27 4.61z" fill="#6d4301" opacity=".9"/>
	</g>
	<g fill="#6d4301">
		<path d="m88.543 168.85c1.1185 12.705 1.6691 25.327-.0431 36.085-3.5104 25.527-5.3344 52.593-6.0744 80.386.21509 4.5964-.56786 9.2805 1.3078 14.407.66248 1.6345-2.2542 1.1062-2.2456-1.48-1.1357-6.4411-.34413-12-.27529-17.77 1.1788-26.953 3.0028-53.461 6.3067-78.643 1.2218-9.9585.49905-21.468-.8001-33.029.61087.013 1.2131.0316 1.824.0441zm-10.686-5.6725c2.1079 10.528 1.3594 19.824 1.6605 29.476.22364 33.486-.27543 66.512.3612 100.28.49901 3.1.56783 8.5657-.46462 6.4724 3.1404-.16515-1.8154 1.8964-.9206-2.1423-.25808-20.264.28399-40.004.0861-60.228-.15484-21.398.10331-42.568-1.1012-64.607.52483-3.034-3.1576-10.562.27534-9.2409l.10324-.005z" opacity=".9"/>
		<path d="m56.755 174.46c.55065-4.2444-.0946-10.236 2.5123-12.075 4.6804-.14624 4.3879 10.756 3.9061 14.441-.2151 4.6689 1.9014 12.419-1.1701 14.075-4.9041-.73694-5.3085-10.886-5.0934-15.313-.0688-2.4255.75714-5.4509.6797-.95794-.10325 4.2828-.38719 13.885 4.517 14.888 2.7704-2.1546-.61085-10.779.71414-14.856 1.1529-3.4041-1.9444-14.779-4.6976-9.8825-.98943 2.1212.0344 7.5144-1.368 9.6801zm1.7896 5.5066c-.63667-3.6904-1.041-14.02 2.8995-7.8706 2.1595 4.5035.54201 13.477-2.5984 8.0793-.31833-4.1955 2.5639 3.4383 3.0802-.5265 1.1099-2.4896-3.4845-13.042-3.1748-6.2539.0688 2.2442.67109 5.1025-.2065 6.5717zm9.7395-21.337c-.12911 33.074-3.1491 64.091-7.0552 94.191-.33555 1.7143-.6539 9.6147-2.1596 4.9944 1.1099-4.7251 1.4971-10.14 2.2542-15.228 2.8221-22.748 4.887-46.244 5.1968-70.983.0172-4.1939-.0344-8.4328-.11183-12.701.62807-.0854 1.2475-.17632 1.8756-.27376zm-.0688.78885c-.16353 35.673-1.196 70.767-2.4608 105.67-.80016 2.9094 1.6863 10.998-1.0927 10.259-1.3508-4.9784.24093-9.1594-.0172-13.871 1.3508-25.171 1.5402-51.172 1.8499-77.071.043-8.1768.0172-16.411-.12041-24.705.61087-.0965 1.2303-.18756 1.8412-.28414zm-15.237-13.356c2.3832 17.193 1.824 32.911 2.0476 48.923-.1291 25.183-1.3939 49.818 1.4109 76.735.65388 3.605 5.1278 10.03 2.4434 11.48-1.5315-6.1235-4.2846-12.573-4.0696-18.306-2.323-35.738.37868-68.425-1.9873-104.19.63669-4.3816-2.8908-12.787-.26669-14.723l.42158.082z" opacity=".9"/>
		<path d="m31.281 228.89c1.6997 5.3576-.50363 9.9578 2.511 15.319 2.7139 3.3487 2.1054-4.1087 2.8258-6.1775.72745-3.2593-2.6929-10.55-4.9172-11.036-.24481 1.5506.0559 8.9762-.99325 3.0694-.34272-6.3392 5.4838-2.1094 5.8965 3.4822.97225 5.483.2448 10.81-2.4062 12.968-4.1338-6.0724-1.8256-11.803-2.9167-17.625zm1.9235 4.1893c-1.1961 1.328 3.3854 11.24 1.1331 4.745-.94428-2.2494-.19585-4.4666.39169-.7349 1.1331 2.9989.30076 6.0011-1.343 1.4589-.64351-2.0013-.96525-4.3024-.18185-5.469zm13.094-61.131c-3.917 22.053-2.3992 48.088-2.791 72.635.021 8.2105-.0211 16.401.5875 24.933 2.1404 4.0276-1.8606 5.3518-1.4409.76494.1469-8.7329-.16785-17.803-.10487-26.605.056-17.344-.11186-34.826.39878-51.883.28679-6.791.81839-13.432 1.8256-19.673.50361-.06 1.0142-.11572 1.5248-.17145zm-10.387-26.728c3.5182 33.561 3.0635 65.127 3.644 97.142-.37772 3.4729 1.231 12.745-1.0772 11.923 1.4129-1.9032.34972 2.5112-.29378-.77681.68551-17.879.18892-36.526-.18876-55.064-.44063-17.262-1.0351-34.792-3.6022-53.013.35673-.4346 1.1471.21359 1.5178-.21247zm-7.4213 7.3499c4.0778 14.659 3.0006 27.602 3.5322 40.857.0979 9.6176.14685 19.205.50356 28.963-3.5882-2.2561-.23081-7.7137-1.5528-11.545-.33572-16.6.51066-32.718-2.0214-50.43-.5036-2.5684-2.595-7.3198-.46163-7.8455z" opacity=".9"/>
	</g>
	<g transform="matrix(.86037 .6055 -1.9863e-6 1.3025 -499.47 -414.21)">
		<path d="m598.05 170.22c-1.49-3.54-1.86-7.61-2.04-11.44.17-5.03-.51-10.2.99-15.08 3.53-3.82 6.56 1.65 7.5 4.74 1.6 3.54.15 7.58.57 11.34-.44 3.82 1.29 8.51-1.96 11.49-1.23 2.15-6.77-.49-4.66-1.73 1.49 1.13 3.39 2.63 5.11.77-.23.62 1.28-3.08.73-4.44-.09-4.94.13-9.89.1-14.83-1.33-2.76-1.95-8.02-5.94-7.64-1.04.29-1.52.75-.62-.31-1.73 5.43-.82 11.23-1.02 16.83-.11 3.42 1.93 7.54 1.52 10.36-.13.12-.18-.05-.28-.06zm1.6-5.18c-2.45-2.66-1.89-6.7-2.17-10.07-.83-2.18 1.14-7.59 3.25-3.59 1.86 3.01 3.12 6.7 1.79 10.18-.08 1.01-2.22 5.14-1.33 2.83-.91.76 1.2-3.22 1.07-4.6.38-3.16-1.21-6.22-3-8.69-1.73-.22-.04-1.54-1.01.48.07 4.02-.38 8.33 1.48 12.03.69.45 1.17 1.31-.08 1.43zm1.36 63.44c-1.62-14.21-1.02-28.54-1.31-42.81-.24-1.81.72-4.59.42-1.12-.01 14.02-.28 28.11 1.43 42.03-.02.14-.24 2.79-.54 1.9zm-4.93 10.23c-.27-11.94-1.46-23.87-1.43-35.84-.03-3.64.03-4.56-.09-8.5-.69-7.11-.6-14.28-1.24-21.4-.38-2.1-.19-6.73.89-7.31.21 4.67.35 9.33.66 14.01.59 10.32.54 20.66 1.01 30.98.37 7.83.9 15.65 1.47 23.45-.03.84-.84 5.63-1.27 4.61z" fill="#6d4301" opacity=".9"/>
	</g>
	<path d="m114.92 159.96 123.65-20.128-6.8293 139.82-117.9 30.912z" fill="none" filter="url(#filter6605)" opacity=".75" stroke="#000" stroke-miterlimit="3" stroke-width="6"/>
	<g fill="#8f5902" stroke="#6d4301" stroke-width="1px">
		<path d="m98.028 331.05 15.815-20.488 1.4377-150.24-17.253-9.7048z"/>
		<path d="m249.29 127.31-10.721 12.515-6.8293 140.54 11.143 8.6265z" stroke-linejoin="round"/>
		<path d="m249.44 126.51-151.77 23.745 17.612 10.064 122.93-20.488z" stroke-linejoin="round"/>
		<path d="m231.02 280.01-117.18 30.912-15.815 20.128 144.85-42.414z"/>
	</g>
	<path d="m86.526 158.88.35944 150.24-75.841-47.086-.71888-134.43z" fill="none" filter="url(#filter6621)" opacity=".75" stroke="#000" stroke-miterlimit="3" stroke-width="4"/>
	<g fill="#8f5902" stroke="#6d4301" stroke-width="1px">
		<path d="m97.309 150.97-92.69-34.259 4.9872 10.177 76.92 32.709z" stroke-linecap="round" stroke-linejoin="round"/>
		<path d="m86.886 159.6.35944 150.24 9.7048 20.847 1.0783-180.08z"/>
		<path d="m97.309 331.05-94.532-63.98 8.6265-4.6727 75.841 47.446z"/>
		<path d="m4.597 116.76-1.4602 149.95 8.2671-4.6727-.35943-132.99z" stroke-linecap="round" stroke-linejoin="round"/>
	</g>
	<path d="m174.23 111.09c-2.7308 5.0134-13.303 19.122-14.881 23.981 3.376 2.2682 6.6212-3.4366 14.21 4.8203 5.8396 4.191 13.115 11.968 12.052 23.109-.0231 4.6093-2.7632 7.4373-4.0999 12.277-.46093 1.6363-.7961 3.1922-.75 3.4688.0461.34571.48088.64103 1.6562 1.125.85273.34571 2.2164 1.0801 3 1.6562 1.498 1.0601 3.375 2.8106 3.375 3.1562 0 .43789-1.3309.17499-2.875-.5625-3.4339-1.6594-4.5098-1.875-8.3125-1.875-2.6273 0-3.841.11485-5.0625.4375-3.7796 1.0141-5.7066 2.8278-6.375 6.0312-.80013 7.1966 5.4156 18.313 13.812 18.531 5.0702 0 12.488-4.6169 19.125-11.969 3.1574-3.48 7.8593-9.9426 8.7812-12.708 1.5211-4.5862 6.2648-10.456 3.6145-23.731-3.0882-15.441-5.8021-20.066-23.383-34.213-3.9496-5.08-11.118-8.9844-13.887-13.535z" opacity=".98" stroke-opacity="0"/>
	<g transform="translate(-716.72 -217.13)" fill="#fff" stroke="#888">
		<path d="m862.84 508.53.0609-11.447s-15.551 3.6496-15.551 3.6496l.0854-53.378-6.7631 1.2211v65.418s22.167-5.4638 22.167-5.4638"/>
		<path d="m889.84 501.87.12829-10.887-16.422 3.8586.12829-16.314 14.547-3.171.12512-11.05-14.583 3.0089.10545-13.409 15.876-3.0541.12971-11.164s-22.163 4.0016-22.163 4.0016l-.40727 63.736s22.535-5.5545 22.535-5.5545"/>
		<path d="m919.06 463.52c.34359-18.457-3.6029-28.451-10.854-27.141l-12.673 2.2882-.80298 61.999 12.263-3.0227c7.6257-1.8796 11.737-16.412 12.067-34.123m-5.8695 1.5846c-.22718 13.187-2.7146 21.396-6.7469 22.345l-5.753 1.3539.58093-40.514 5.7086-1.096c4.6405-.89096 6.4214 5.6643 6.2104 17.911"/>
		<path d="m942.76 488.83.25139-10.307-14.612 3.4333.32277-15.425 12.936-2.82.25069-10.453-12.965 2.675.26511-12.67 14.111-2.7144.25588-10.554s-19.684 3.5541-19.684 3.5541l-1.1818 60.223s20.05-4.942 20.05-4.942"/>
	</g>
	<path d="m174.15 111.2c-2.7308 5.0134-13.303 19.122-14.881 23.981 3.376 2.2682 6.6212-3.4366 14.21 4.8203 5.8396 4.191 13.115 11.968 12.052 23.109-.0231 4.6093-2.7632 7.4373-4.0999 12.277-.46093 1.6363-.7961 3.1922-.75 3.4688.0461.3457.48088.64103 1.6562 1.125.85273.3457 2.2164 1.0801 3 1.6562 1.498 1.0601 3.375 2.8105 3.375 3.1562 0 .43788-1.3309.17498-2.875-.5625-3.4339-1.6594-4.5098-1.875-8.3125-1.875-2.6273 0-3.841.11484-5.0625.4375-3.7796 1.014-5.7066 2.8278-6.375 6.0312-.80013 7.1966 5.4156 18.313 13.812 18.531 5.0702 0 12.488-4.6169 19.125-11.969 3.1574-3.48 7.8593-9.9426 8.7812-12.708 1.5211-4.5863 6.2648-10.456 3.6145-23.731-3.0882-15.441-5.8021-20.066-23.383-34.213-3.9496-5.08-11.118-8.9844-13.887-13.535z" fill-opacity="0" filter="url(#filter9833)" stroke="#000" stroke-width="1.7"/>
</svg>
