<?xml version="1.0" encoding="UTF-8"?>
<svg role='img' width="92pt" height="92pt" version="1.1" viewBox="0 0 92 92" xmlns="http://www.w3.org/2000/svg" xmlns:cc="http://creativecommons.org/ns#" xmlns:dc="http://purl.org/dc/elements/1.1/" xmlns:rdf="http://www.w3.org/1999/02/22-rdf-syntax-ns#">
	<title>git logo</title>
	<metadata>
		<rdf:RDF>
			<cc:Work rdf:about="">
				<dc:format>image/svg+xml</dc:format>
				<dc:type rdf:resource="http://purl.org/dc/dcmitype/StillImage"/>
				<dc:title>git logo</dc:title>
			</cc:Work>
		</rdf:RDF>
	</metadata>
	<defs>
		<clipPath id="clip1">
			<path d="m0 .11328h91.887v91.887h-91.887z"/>
		</clipPath>
	</defs>
	<g clip-path="url(#clip1)">
		<path d="m90.156 41.965-40.121-40.117c-2.3086-2.3125-6.0586-2.3125-8.3711 0l-8.3281 8.332 10.566 10.566c2.457-.82812 5.2734-.27344 7.2305 1.6836 1.9688 1.9727 2.5195 4.8125 1.668 7.2773l10.188 10.184c2.4648-.85156 5.3047-.30078 7.2773 1.6719 2.75 2.75 2.75 7.207 0 9.957-2.7539 2.75-7.2109 2.75-9.9648 0-2.0664-2.0703-2.5781-5.1094-1.5273-7.6602l-9.5-9.4961v24.996c.66797.33203 1.3008.77344 1.8594 1.332 2.75 2.75 2.75 7.2031 0 9.957-2.75 2.75-7.2109 2.75-9.957 0-2.75-2.7539-2.75-7.207 0-9.957.67969-.67969 1.4688-1.1953 2.3047-1.5391v-25.227c-.83594-.34375-1.625-.85156-2.3047-1.5352-2.082-2.0859-2.582-5.1406-1.5156-7.6992l-10.418-10.418-27.512 27.504c-2.3086 2.3164-2.3086 6.0625 0 8.3711l40.121 40.121c2.3125 2.3086 6.0586 2.3086 8.3711 0l39.934-39.934c2.3086-2.3125 2.3086-6.0586 0-8.3711" fill="#ef3b2d"/>
	</g>
</svg>
