<?xml version="1.0" encoding="UTF-8"?>
<!-- Generator: Adobe Illustrator 21.0.0, SVG Export Plug-In . SVG Version: 6.00 Build 0)  -->
<svg role='img' width="118.99" height="90.001" enable-background="new 0 0 128 128" version="1.1" viewBox="0 0 118.99 90.001" xml:space="preserve" xmlns="http://www.w3.org/2000/svg" xmlns:cc="http://creativecommons.org/ns#" xmlns:dc="http://purl.org/dc/elements/1.1/" xmlns:rdf="http://www.w3.org/1999/02/22-rdf-syntax-ns#"><title>PowerShell logo</title><metadata><rdf:RDF><cc:Work rdf:about=""><dc:format>image/svg+xml</dc:format><dc:type rdf:resource="http://purl.org/dc/dcmitype/StillImage"/><dc:title>PowerShell logo</dc:title></cc:Work></rdf:RDF></metadata><linearGradient id="SVGID_1_" x1="95.123" x2="26.855" y1="91.805" y2="30.825" gradientTransform="translate(-4.5031 -19)" gradientUnits="userSpaceOnUse"><stop stop-color="#5391FE" offset="0"/><stop stop-color="#3E6DBF" offset="1"/></linearGradient><path d="m4.9879 90c-1.62 0-3.021-.638-3.944-1.798-.944-1.185-1.268-2.814-.889-4.47l17.834-77.911c.747-3.264 3.884-5.821 7.142-5.821h88.866c1.62 0 3.021.638 3.945 1.798.944 1.184 1.268 2.814.889 4.47l-17.834 77.911c-.747 3.264-3.884 5.822-7.143 5.822h-88.866z" clip-rule="evenodd" fill="url(#SVGID_1_)" fill-rule="evenodd"/><linearGradient id="SVGID_2_" x1="26.178" x2="93.748" y1="30.015" y2="90.738" gradientTransform="translate(-4.5031 -19)" gradientUnits="userSpaceOnUse"><stop stop-color="#5391FE" offset="0"/><stop stop-color="#3E6DBF" offset="1"/></linearGradient><path d="m25.131 1h88.866c2.769 0 4.496 2.259 3.858 5.045l-17.834 77.911c-.638 2.786-3.399 5.045-6.168 5.045h-88.865c-2.769 0-4.496-2.258-3.858-5.045l17.834-77.911c.637-2.786 3.399-5.045 6.167-5.045z" clip-rule="evenodd" fill="url(#SVGID_2_)" fill-rule="evenodd"/><g><title>&gt;</title><path d="m73.681 47.455c-.372.749-1.144 1.575-2.509 2.534l-40.113 28.809c-2.19 1.591-5.334 1.001-7.021-1.319s-1.28-5.49.91-7.082l36.173-26.194v-.538l-22.728-24.178c-1.854-1.972-1.661-5.161.431-7.124 2.092-1.962 5.29-1.954 7.144.018l27.271 29.012c1.548 1.647 1.663 4.141.442 6.062z" clip-rule="evenodd" fill="#2c5591" fill-rule="evenodd"/><path d="m72.681 46.455c-.372.749-1.144 1.575-2.509 2.534l-40.113 28.809c-2.19 1.591-5.334 1.001-7.021-1.319s-1.28-5.49.91-7.082l36.173-26.194v-.538l-22.728-24.178c-1.854-1.972-1.661-5.161.431-7.124 2.092-1.962 5.29-1.954 7.144.018l27.271 29.012c1.548 1.647 1.663 4.141.442 6.062z" clip-rule="evenodd" fill="#fff" fill-rule="evenodd"/></g><g><title>_</title><path d="m59.662 68.558h21.613c2.513 0 4.55 2.125 4.55 4.746s-2.037 4.747-4.55 4.747h-21.613c-2.513 0-4.55-2.125-4.55-4.747 0-2.621 2.037-4.746 4.55-4.746z" clip-rule="evenodd" fill="#2c5591" fill-rule="evenodd"/><path d="m59.047 68h21.613c2.513 0 4.55 2.015 4.55 4.5s-2.037 4.5-4.55 4.5h-21.613c-2.513 0-4.55-2.015-4.55-4.5s2.037-4.5 4.55-4.5z" clip-rule="evenodd" fill="#fff" fill-rule="evenodd"/></g></svg>
